<!--?xml version="1.0" standalone="no"?--><svg t="1535953779842" class="icon" style="" viewBox="0 0 1024 1024" version="1.1" xmlns="http://www.w3.org/2000/svg" p-id="3712" xmlns:xlink="http://www.w3.org/1999/xlink" width="512" height="512"><defs><style type="text/css"></style></defs><path d="M736 64H288C164.8 64 64 164.8 64 288v448c0 123.2 100.8 224 224 224h448c123.2 0 224-100.8 224-224V288c0-123.2-100.8-224-224-224z m-28.8 504h-140.8v140.8c0 30.4-25.6 56-56 56s-56-25.6-56-56v-140.8h-140.8c-30.4 0-56-25.6-56-56s25.6-56 56-56h140.8v-140.8c0-30.4 25.6-56 56-56s56 25.6 56 56v140.8h140.8c30.4 0 56 25.6 56 56s-24 56-56 56z" p-id="3713" fill="#349edf"></path></svg>
